# xmcd
#
# Track frame offsets: 
#        150
#        21906
#        45868
#        68857
#        91103
#        117860
#        141953
#        166369
#        189534
#        209226
#        225663
#        259105
#
# Disc length: 3746 seconds
#
# Revision: 0
# Processed by: cddbd v1.5.2PL0 Copyright (c) Steve Scherf et al.
# Submitted via: ExactAudioCopy v0.99pb3
#
DISCID=a50ea00c
DTITLE=Billy Thompson - Tangerine Sky
DYEAR=1997
DGENRE=Blues
TTITLE0=Back To Memphis
TTITLE1=Downsizing
TTITLE2=So Glad
TTITLE3=Do Right Boy
TTITLE4=Tangerine Sky
TTITLE5=Chip Off The Old Block
TTITLE6=I Chose To Let You
TTITLE7=Get Up
TTITLE8=Cut To The Quick
TTITLE9=Early Bird
TTITLE10=The Street
TTITLE11=Skin Deep
EXTD=
EXTT0=
EXTT1=
EXTT2=
EXTT3=
EXTT4=
EXTT5=
EXTT6=
EXTT7=
EXTT8=
EXTT9=
EXTT10=
EXTT11=
PLAYORDER=
